<?xml version="1.0" encoding="utf-8"?>
<!-- Generator: Adobe Illustrator 16.0.0, SVG Export Plug-In . SVG Version: 6.00 Build 0)  -->
<!DOCTYPE svg PUBLIC "-//W3C//DTD SVG 1.1//EN" "http://www.w3.org/Graphics/SVG/1.1/DTD/svg11.dtd">
<svg version="1.1" id="Warstwa_1" xmlns="http://www.w3.org/2000/svg" xmlns:xlink="http://www.w3.org/1999/xlink" x="0px" y="0px"
	 width="25px" height="25px" viewBox="0 0 25 25" enable-background="new 0 0 25 25" xml:space="preserve">
<g>
	<g>
		<path fill="none" stroke="#000000" stroke-miterlimit="10" d="M5.086,11.713c0.018,0.077-0.754,0.699-0.843,0.787
			c-0.302,0.301-0.591,0.614-0.851,0.953c-0.513,0.668-0.899,1.436-1.027,2.273c-0.257,1.682,0.362,3.439,1.326,4.805
			c1.955,2.764,5.6,3.598,8.819,3.303c1.119-0.102,2.195-0.457,3.236-0.863c0.9-0.352,1.768-0.768,2.363-1.559
			c0.582-0.771,1.053-1.621,1.613-2.408c0.697-0.979,1.637-1.754,2.309-2.752c0.275-0.408,0.512-0.873,0.92-1.166
			c0.459-0.328,0.459-0.328,0.459-0.328c0.586-0.119,0.758-0.551,0.381-0.961c0,0,0,0-0.506-0.213
			c-0.436-0.18-1.092-0.399-1.541-0.338c-1.188,0.164-2.418,1.049-3.65,0.967c-0.451-0.029-0.451-0.029-0.451-0.029
			c-0.559-0.602-0.412-1.625,0.322-2.274c0,0,0,0,0.418-0.8c0.479-0.917,0.611-1.975,0.537-2.998
			c-0.082-1.125-0.406-2.25-0.961-3.234c-0.496-0.879-1.193-1.625-2.07-2.133c-0.861-0.501-1.84-0.769-2.814-0.946
			c-1.053-0.192-2.138-0.291-3.208-0.235C8.84,1.615,7.802,1.831,6.918,2.376C6.038,2.92,5.392,3.755,4.992,4.702
			C4.566,5.708,4.407,6.816,4.427,7.904c0.02,1.05,0.222,2.082,0.479,3.098C4.965,11.238,5.028,11.473,5.086,11.713z"/>
	</g>
	<g>
		<path fill="none" stroke="#000000" stroke-miterlimit="10" d="M18.803,15.974"/>
	</g>
	<g>
		<path fill="none" stroke="#000000" stroke-miterlimit="10" d="M16.455,19.335"/>
	</g>
	<g>
		<path fill="none" stroke="#000000" stroke-miterlimit="10" d="M15.547,19.726"/>
	</g>
	<g>
		<path fill="none" stroke="#000000" stroke-miterlimit="10" d="M14.5,20.19"/>
	</g>
	<g>
		<path fill="none" stroke="#000000" stroke-miterlimit="10" d="M12.27,20.761"/>
	</g>
	<g>
		<path fill="none" stroke="#000000" stroke-miterlimit="10" d="M5.06,18.058"/>
	</g>
	<g>
		<path fill="none" stroke="#000000" stroke-miterlimit="10" d="M3.976,14.132"/>
	</g>
	<g>
		<path fill="none" stroke="#000000" stroke-miterlimit="10" d="M5.511,11.494"/>
	</g>
	<g>
		<path fill="none" stroke="#000000" stroke-miterlimit="10" d="M16.672,11.672"/>
	</g>
	<g>
		<path fill="none" stroke="#000000" stroke-miterlimit="10" d="M6.259,4.494"/>
	</g>
	<g>
		<path fill="none" stroke="#000000" stroke-miterlimit="10" d="M5.928,5.232"/>
	</g>
	<g>
		<path fill="none" stroke="#000000" stroke-miterlimit="10" d="M6.145,9.632"/>
	</g>
	<path fill="none" stroke="#000000" stroke-miterlimit="10" d="M16.273,4.997"/>
	<path fill="none" stroke="#000000" stroke-miterlimit="10" d="M17.229,7.496"/>
	<path fill="none" stroke="#000000" stroke-miterlimit="10" d="M17.238,10.634"/>
	<path fill="none" stroke="#000000" stroke-miterlimit="10" d="M5.495,8.971"/>
	<path fill="none" stroke="#000000" stroke-miterlimit="10" d="M6.258,4.669"/>
	<path fill="none" stroke="#000000" stroke-miterlimit="10" d="M10.527,2.799"/>
	<g>
		<g>
			<path fill="none" stroke="#000000" stroke-miterlimit="10" d="M15.455,11.896c1.061,0.138,1.061,0.138,1.678-1.279
				c0.338-0.776,0.5-1.614,0.439-2.451c-0.068-0.919-0.334-1.84-0.787-2.645c-0.406-0.719-0.977-1.329-1.691-1.744
				c-0.705-0.409-1.506-0.629-2.301-0.773c-0.862-0.157-1.749-0.238-2.625-0.193c-0.838,0.044-1.687,0.22-2.41,0.667
				C7.038,3.922,6.51,4.604,6.183,5.378C5.835,6.202,5.705,7.107,5.722,7.997c0.028,1.492,0.596,3.326,0.596,3.326"/>
		</g>
		<path fill="none" stroke="#000000" stroke-miterlimit="10" d="M6.204,11.115c0.298-0.073,0.627-0.155,0.929-0.23
			c0.988-0.243,2.182-0.306,3.206-0.211c0.63,0.057,1.548,0.127,2.877,0.496c0.549,0.152,1.02,0.305,1.484,0.463
			c0.252,0.085,0.504,0.174,0.754,0.264c0.715,0.258,0.721,0.006,0.855,0.059"/>
	</g>
</g>
<g>
</g>
<g>
</g>
<g>
</g>
<g>
</g>
<g>
</g>
<g>
</g>
<g>
</g>
<g>
</g>
<g>
</g>
<g>
</g>
<g>
</g>
<g>
</g>
<g>
</g>
<g>
</g>
<g>
</g>
</svg>
